<?xml version="1.0" encoding="UTF-8"?>
<!DOCTYPE svg PUBLIC "-//W3C//DTD SVG 1.1//EN" "http://www.w3.org/Graphics/SVG/1.1/DTD/svg11.dtd">
<svg version="1.1" xmlns="http://www.w3.org/2000/svg" xmlns:xlink="http://www.w3.org/1999/xlink" x="0" y="0" width="256" height="256" viewBox="0, 0, 256, 256">
  <defs>
    <linearGradient id="Gradient_1" gradientUnits="userSpaceOnUse" x1="126" y1="259.333" x2="126" y2="0">
      <stop offset="0" stop-color="#300000"/>
      <stop offset="1" stop-color="#005147"/>
    </linearGradient>
  </defs>
  <g id="Layer_1" display="none"/>
  <g id="steering" display="none">
    <path d="M128.5,160.456 C87.631,160.456 54.5,127.325 54.5,86.456 C54.5,45.587 87.631,12.456 128.5,12.456 C169.369,12.456 202.5,45.587 202.5,86.456 C202.5,127.325 169.369,160.456 128.5,160.456 z" fill-opacity="0" stroke="#DF0000" stroke-width="24"/>
    <path d="M124.581,88.456 L124.581,12.456" fill-opacity="0" stroke="#DF0000" stroke-width="17"/>
    <path d="M125.914,88.456 L179.914,142.456" fill-opacity="0" stroke="#DF0000" stroke-width="17"/>
    <path d="M124.581,88.456 L74.581,138.456" fill-opacity="0" stroke="#DF0000" stroke-width="17"/>
    <g>
      <path d="M190.167,192.456 L34.833,192.456" fill-opacity="0" stroke="#DF0000" stroke-width="16" stroke-linecap="round" stroke-linejoin="bevel"/>
      <path d="M190.167,192.456 L182.167,204.456 L214.167,192.456 L182.167,180.456 z" fill="#DF0000" fill-opacity="1" stroke="#DF0000" stroke-width="16" stroke-opacity="1"/>
    </g>
    <g>
      <path d="M222.167,232.167 L66.833,232.167" fill-opacity="0" stroke="#DF0000" stroke-width="16" stroke-linecap="round" stroke-linejoin="bevel"/>
      <path d="M66.833,232.167 L74.833,220.167 L42.833,232.167 L74.833,244.167 z" fill="#DF0000" fill-opacity="1" stroke="#DF0000" stroke-width="16" stroke-opacity="1"/>
    </g>
  </g>
  <g id="brake" display="none">
    <path d="M15.914,213.789 L233.914,21.789" fill-opacity="0" stroke="#DF0000" stroke-width="37" stroke-linecap="round"/>
    <path d="M123.211,127.09 L174.305,204.729" fill-opacity="0" stroke="#DF0000" stroke-width="37" stroke-linecap="round"/>
    <path d="M15.914,248.456 C15.914,248.456 39.621,145.721 39.621,145.721 C39.621,145.721 85.212,171.405 85.212,171.405 C85.212,171.405 117.125,84.611 117.125,83.726 C117.125,82.84 184.599,93.468 184.599,93.468 C184.599,93.468 219.247,5.789 219.247,5.789" fill-opacity="0" stroke="#E8E8E8" stroke-width="8"/>
    <path d="M374.581,36.456" fill-opacity="0" stroke="#E8E8E8" stroke-width="3"/>
  </g>
  <g id="nitrous" display="none">
    <g>
      <path d="M45.5,25.789 C45.5,25.789 63.5,103.789 63.5,103.789 C63.5,103.789 14.833,101.122 14.833,100.456 C14.833,99.789 54.833,143.789 54.833,143.789 C54.833,143.789 18.833,171.122 18.833,171.122 C18.833,171.122 70.833,172.456 70.833,172.456 L37.5,230.456 C37.5,230.456 112.833,155.122 112.833,155.122 C112.833,155.122 131.5,215.122 131.5,215.122 C131.5,215.122 131.5,145.789 131.5,145.789 C131.5,145.789 178.167,205.789 178.167,205.789 C178.167,205.789 168.167,135.122 168.167,135.122 C168.167,135.122 242.167,175.122 242.167,175.122 C242.167,175.122 166.833,79.789 166.833,79.789 C166.833,79.789 231.5,29.789 231.5,29.789 C231.5,29.789 121.5,77.122 121.5,77.122 C121.5,77.122 92.167,17.789 92.167,17.122 C92.167,16.456 100.167,109.789 100.167,109.789 L45.5,25.789 z" fill="#FFC207"/>
      <path d="M45.5,25.789 C45.5,25.789 63.5,103.789 63.5,103.789 C63.5,103.789 14.833,101.122 14.833,100.456 C14.833,99.789 54.833,143.789 54.833,143.789 C54.833,143.789 18.833,171.122 18.833,171.122 C18.833,171.122 70.833,172.456 70.833,172.456 L37.5,230.456 C37.5,230.456 112.833,155.122 112.833,155.122 C112.833,155.122 131.5,215.122 131.5,215.122 C131.5,215.122 131.5,145.789 131.5,145.789 C131.5,145.789 178.167,205.789 178.167,205.789 C178.167,205.789 168.167,135.122 168.167,135.122 C168.167,135.122 242.167,175.122 242.167,175.122 C242.167,175.122 166.833,79.789 166.833,79.789 C166.833,79.789 231.5,29.789 231.5,29.789 C231.5,29.789 121.5,77.122 121.5,77.122 C121.5,77.122 92.167,17.789 92.167,17.122 C92.167,16.456 100.167,109.789 100.167,109.789 L45.5,25.789 z" fill-opacity="0" stroke="#DF0000" stroke-width="18" stroke-linecap="round" stroke-linejoin="round"/>
    </g>
  </g>
  <g id="Layer_6">
    <path d="M-4,0 L256,0 L256,259.333 L-4,259.333 L-4,0 z" fill="url(#Gradient_1)"/>
    <g>
      <text transform="matrix(1, 0, 0, 1, 82.666, 115.895)">
        <tspan x="-53.711" y="60.105" font-family="Cyberjunkies" font-size="200" fill="#D2D2D2">C</tspan>
      </text>
      <path d="M92.431,78.344 L72.9,78.344 L72.9,146.703 L92.431,146.703 L92.431,136.938 L131.494,127.172 L131.494,176 L33.837,176 L33.837,49.047 L131.494,49.047 L131.494,88.109 L92.431,97.875 z" fill-opacity="0" stroke="#9D0000" stroke-width="6"/>
    </g>
    <g>
      <text transform="matrix(1, 0, 0, 1, 193.668, 175.439)">
        <tspan x="-53.711" y="60.105" font-family="Cyberjunkies" font-size="200" fill="#D2D2D2">T</tspan>
      </text>
      <path d="M213.199,137.888 L213.199,235.544 L174.136,245.31 L174.136,137.888 L144.84,137.888 L144.84,108.591 L242.496,108.591 L242.496,137.888 z" fill-opacity="0" stroke="#9D0000" stroke-width="6"/>
    </g>
  </g>
  <g id="thrust" display="none">
    <path d="M22.833,236.667 L240.833,44.667" fill-opacity="0" stroke="#00DF21" stroke-width="28" stroke-linecap="round"/>
    <path d="M130.13,150.634 L181.224,228.273" fill-opacity="0" stroke="#00DF21" stroke-width="28" stroke-linecap="round"/>
    <path d="M386.833,67.167" fill-opacity="0" stroke="#00DF21" stroke-width="3"/>
    <path d="M123.167,221 C67.754,221 22.833,176.079 22.833,120.667 C22.833,65.254 67.754,20.333 123.167,20.333 C178.579,20.333 223.5,65.254 223.5,120.667 C223.5,176.079 178.579,221 123.167,221 z" fill-opacity="0" stroke="#DF0000" stroke-width="28"/>
    <path d="M190.165,51.066 L50.06,191.171" fill-opacity="0" stroke="#DF0000" stroke-width="28"/>
  </g>
</svg>
